<svg width="1440" height="512" viewBox="0 0 1440 512" fill="none" xmlns="http://www.w3.org/2000/svg">
<rect width="1440" height="512" fill="url(#paint0_linear)" fill-opacity="0.6"/>
<path d="M606.94 255.64C606.94 243.16 609.64 232.06 615.04 222.34C620.44 212.5 627.94 204.88 637.54 199.48C647.26 193.96 658.24 191.2 670.48 191.2C685.48 191.2 698.32 195.16 709 203.08C719.68 211 726.82 221.8 730.42 235.48H696.58C694.06 230.2 690.46 226.18 685.78 223.42C681.22 220.66 676 219.28 670.12 219.28C660.64 219.28 652.96 222.58 647.08 229.18C641.2 235.78 638.26 244.6 638.26 255.64C638.26 266.68 641.2 275.5 647.08 282.1C652.96 288.7 660.64 292 670.12 292C676 292 681.22 290.62 685.78 287.86C690.46 285.1 694.06 281.08 696.58 275.8H730.42C726.82 289.48 719.68 300.28 709 308.2C698.32 316 685.48 319.9 670.48 319.9C658.24 319.9 647.26 317.2 637.54 311.8C627.94 306.28 620.44 298.66 615.04 288.94C609.64 279.22 606.94 268.12 606.94 255.64ZM809.029 320.26C797.149 320.26 786.229 317.5 776.269 311.98C766.429 306.46 758.569 298.78 752.689 288.94C746.929 278.98 744.049 267.82 744.049 255.46C744.049 243.1 746.929 232 752.689 222.16C758.569 212.32 766.429 204.64 776.269 199.12C786.229 193.6 797.149 190.84 809.029 190.84C820.909 190.84 831.769 193.6 841.609 199.12C851.569 204.64 859.369 212.32 865.009 222.16C870.769 232 873.649 243.1 873.649 255.46C873.649 267.82 870.769 278.98 865.009 288.94C859.249 298.78 851.449 306.46 841.609 311.98C831.769 317.5 820.909 320.26 809.029 320.26ZM809.029 292.18C819.109 292.18 827.149 288.82 833.149 282.1C839.269 275.38 842.329 266.5 842.329 255.46C842.329 244.3 839.269 235.42 833.149 228.82C827.149 222.1 819.109 218.74 809.029 218.74C798.829 218.74 790.669 222.04 784.549 228.64C778.549 235.24 775.549 244.18 775.549 255.46C775.549 266.62 778.549 275.56 784.549 282.28C790.669 288.88 798.829 292.18 809.029 292.18ZM987.073 233.32C987.073 240.64 985.393 247.36 982.033 253.48C978.673 259.48 973.513 264.34 966.553 268.06C959.593 271.78 950.953 273.64 940.633 273.64H921.553V319H890.773V192.64H940.633C950.713 192.64 959.233 194.38 966.193 197.86C973.153 201.34 978.373 206.14 981.853 212.26C985.333 218.38 987.073 225.4 987.073 233.32ZM938.293 249.16C944.173 249.16 948.553 247.78 951.433 245.02C954.313 242.26 955.753 238.36 955.753 233.32C955.753 228.28 954.313 224.38 951.433 221.62C948.553 218.86 944.173 217.48 938.293 217.48H921.553V249.16H938.293ZM1081.76 296.68H1034.6L1027.04 319H994.818L1040.54 192.64H1076.18L1121.9 319H1089.32L1081.76 296.68ZM1073.84 272.92L1058.18 226.66L1042.7 272.92H1073.84Z" fill="white"/>
<path d="M438.968 282.151H449.499V337.413H425.234H392.998L398.489 326.431H402.031L403.98 323.243L433.204 318.992L438.968 282.151Z" fill="#FFD43B"/>
<path d="M429.308 276.484H449.499V298.446L429.308 295.108V276.484Z" fill="#F08C00"/>
<path fill-rule="evenodd" clip-rule="evenodd" d="M416.362 264.564C430.67 251.222 428.208 225.326 410.863 206.726C393.517 188.125 367.857 183.862 353.549 197.205C339.24 210.548 341.703 236.443 359.048 255.044C376.393 273.644 402.054 277.907 416.362 264.564ZM406.698 254.201C415.283 246.196 412.508 229.267 400.5 216.389C388.491 203.512 371.797 199.562 363.212 207.568C354.627 215.574 357.403 232.503 369.411 245.38C381.419 258.257 398.113 262.207 406.698 254.201Z" fill="#FFD43B"/>
<path fill-rule="evenodd" clip-rule="evenodd" d="M371.374 176.006C369.651 183.204 368.733 190.76 368.733 198.551C368.733 247.461 404.893 287.111 449.499 287.111L449.499 173.278L371.374 176.006ZM497.081 126.995H497.095C497.09 126.991 497.085 126.987 497.081 126.984L497.081 126.995Z" fill="#FFD43B"/>
<path fill-rule="evenodd" clip-rule="evenodd" d="M402.335 184.934C400.98 192.35 400.26 200.123 400.26 208.131C400.26 230.484 405.872 250.997 415.226 267.05C395.472 254.438 382.194 230.966 382.194 204.095C382.194 197.69 382.948 191.479 384.365 185.562L402.335 184.934ZM514.979 204.165L514.98 204.095L514.979 204.024V204.165Z" fill="white"/>
<path d="M460.031 282.153H449.499V337.392H473.765H506.001L500.51 326.415H496.968L495.019 323.229L465.794 318.979L460.031 282.153Z" fill="#FAB005"/>
<path d="M469.691 276.488H449.499V298.442L469.691 295.105V276.488Z" fill="#F08C00"/>
<path fill-rule="evenodd" clip-rule="evenodd" d="M482.637 264.573C468.328 251.236 470.791 225.351 488.136 206.758C505.482 188.165 531.143 183.904 545.451 197.241C559.759 210.579 557.297 236.463 539.952 255.057C522.606 273.65 496.945 277.911 482.637 264.573ZM492.301 254.215C483.716 246.212 486.491 229.29 498.499 216.418C510.508 203.546 527.202 199.598 535.787 207.6C544.372 215.602 541.597 232.525 529.588 245.397C517.58 258.269 500.886 262.217 492.301 254.215Z" fill="#FCC419"/>
<path fill-rule="evenodd" clip-rule="evenodd" d="M527.626 176.051C529.349 183.246 530.266 190.799 530.266 198.587C530.266 247.477 494.106 287.111 449.499 287.111L449.499 173.324L527.626 176.051ZM401.917 127.06H401.903C401.908 127.056 401.913 127.052 401.917 127.048L401.917 127.06Z" fill="#FCC419"/>
<path fill-rule="evenodd" clip-rule="evenodd" d="M496.664 184.975C498.019 192.388 498.739 200.158 498.739 208.163C498.739 230.507 493.127 251.012 483.772 267.058C503.527 254.451 516.805 230.989 516.805 204.128C516.805 197.726 516.051 191.517 514.635 185.603L496.664 184.975ZM384.018 204.199L384.018 204.128L384.018 204.058V204.199Z" fill="#FAB005"/>
<defs>
<linearGradient id="paint0_linear" x1="0" y1="0" x2="1440" y2="512" gradientUnits="userSpaceOnUse">
<stop stop-color="#5F3DC4"/>
<stop offset="0.510417" stop-color="#FF3860"/>
<stop offset="1" stop-color="#FCC419"/>
</linearGradient>
</defs>
</svg>
